<svg width="121" height="100" viewBox="0 0 121 100" fill="none" xmlns="http://www.w3.org/2000/svg">
<g clip-path="url(#clip0_4739_15130)">
<g clip-path="url(#clip1_4739_15130)">
<path d="M93.9589 73.3736C94.5872 72.2129 95.083 69.2633 92.9353 69.4232C90.4472 69.6106 90.9202 76.2273 90.9202 76.2273C91.7518 75.3248 93.0016 75.1397 93.9589 73.3736Z" fill="#14142B"/>
<path d="M69.5735 79.2431C69.5735 80.1639 70.1904 81.0618 71.054 81.0618C72.5939 81.0618 72.9458 80.5568 73.2931 80.2484L73.2862 74.2144C72.5025 75.1694 69.5735 75.6652 69.5735 79.2431Z" fill="#14142B"/>
<path d="M76.0393 42.8538C77.7255 44.2087 78.5251 42.7533 77.3942 41.1997C76.9464 40.5851 75.2122 40.761 74.7004 41.3048C74.7004 41.3048 75.6075 42.5088 76.0393 42.8538Z" fill="#14142B"/>
<path d="M61.4192 35.1083C60.5967 33.6689 57.9944 30.998 57.9944 30.998C57.9944 30.998 53.4363 35.6864 53.2855 35.8463C52.5612 36.6048 52.4356 36.7922 51.7593 37.1989H60.0255C62.2646 37.1989 61.8191 35.8075 61.4192 35.1083Z" fill="#14142B"/>
<path d="M0.800049 5V95.6706H120.8V5H0.800049ZM65.3604 36.0887C65.3673 35.7277 65.3604 25.6519 65.3604 25.2315C65.3604 23.4746 66.2972 22.0557 66.5645 21.777C66.8958 21.432 70.4486 18.2265 70.6885 17.9843L71.6846 18.014C71.4607 18.2516 70.1904 19.3117 69.8066 19.7413C69.4296 20.1617 68.7007 21.0299 68.7007 22.5949C68.7007 23.0153 68.6939 32.561 68.6939 33.0271C68.6939 35.008 67.6498 36.2692 67.2111 36.7673C66.8752 37.1511 63.656 40.0048 63.3476 40.2995L62.4017 40.2835C62.5479 40.1236 64.2203 38.6042 64.4922 38.3323C64.8783 37.9485 65.3467 36.8564 65.3604 36.0887ZM48.3984 36.0544C48.7754 36.4908 49.1569 37.0003 50.0823 36.9866C50.8042 36.9752 51.5628 36.4086 51.7661 36.2052C51.9763 35.9928 57.3181 30.4088 57.3181 30.4088C57.3181 30.4088 54.8163 28.0898 53.169 26.9862C52.3647 26.447 51.2977 27.1279 51.1355 27.8384C50.6306 30.0592 51.1355 33.3904 51.1355 33.3904C51.1355 33.3904 49.5019 31.7614 49.109 31.3684C48.2933 30.5505 48.323 28.7021 49.294 27.7288C49.4471 27.5734 50.9276 25.8987 52.8103 25.8987H55.7393C57.7065 25.8987 59.8565 27.8567 59.8565 27.8567C59.8565 27.8567 60.1717 27.5117 60.1717 27.1759C60.1717 26.1683 60.1329 23.4517 60.1329 23.4517C58.6547 21.9712 58.4536 20.4473 59.1619 19.739C60.4848 18.4161 60.9668 17.95 60.9668 17.95C60.9668 17.95 60.9508 19.5585 62.4953 21.1007C63.0254 21.6308 64.1678 23.0679 63.4824 23.7533C62.8769 24.3588 61.9401 25.3184 61.9401 25.3184C61.8922 24.9711 61.0148 24.1394 61.0148 24.1394C61.0148 24.1394 61.024 26.6915 61.0148 27.0068C60.9851 28.1583 60.551 28.4873 60.551 28.4873C60.551 28.4873 62.6804 30.6007 62.6804 33.3127C62.6804 34.6287 62.685 35.8397 62.685 36.1001C62.685 36.6553 62.5456 37.0871 62.1572 37.5144C61.9653 37.7269 59.9935 39.7101 59.6919 39.9797C59.1208 40.4937 58.5199 40.5805 58.0675 40.5805H50.7288C49.5728 40.5805 48.3824 39.6781 48.3824 38.7756C48.3824 38.5494 48.3984 36.0544 48.3984 36.0544ZM45.5105 31.5923C45.6658 31.6586 46.518 32.0013 46.518 35.2776C46.518 35.2776 46.4609 39.0863 46.4609 39.2897C46.4609 40.9507 47.7815 42.8539 49.687 42.8539C50.0777 42.8539 65.3444 42.8379 65.3444 42.8379C65.3581 42.4175 65.7785 40.8204 66.5302 39.9751C66.9575 39.4999 70.3161 36.4269 70.6999 36.1321L71.6938 36.1207C71.5453 36.2578 69.9231 37.7132 69.5598 38.097C69.1189 38.5608 68.6985 39.6986 68.6985 40.6994V42.8356H70.8667C71.7098 42.8356 72.8202 42.0679 73.0623 41.6635C73.076 41.6338 73.0623 39.5433 73.0623 39.5433C73.0623 39.5433 73.6198 40.3406 74.2207 40.761C74.4469 40.4754 76.4186 38.0833 78.0728 38.0696C80.8305 38.0467 80.2091 41.5287 79.0804 42.6414C78.7148 43.0001 77.0858 44.4943 76.5809 44.9741C75.2786 46.2148 73.0486 45.6207 73.0486 42.4152C73.0486 42.4152 70.6542 44.6885 70.2955 44.9878C69.9345 45.2894 68.7007 46.5963 68.7007 46.5963V52.2282C68.7007 54.9288 67.812 55.8359 67.074 56.647C66.7884 56.9623 63.7474 59.7382 63.3407 60.0375L62.3468 60.0604C62.3468 60.0604 64.1267 58.4428 64.4831 58.0727C64.8875 57.6523 65.3604 56.7955 65.3604 55.3721C65.3604 55.0111 65.3147 46.5232 65.3147 46.5232H51.4805C46.6688 46.5232 45.6407 41.1837 45.611 39.7535C45.6019 39.3331 45.611 35.0674 45.611 34.4071C45.611 33.5298 45.0489 32.0493 44.1533 31.5923H45.5105ZM72.811 51.769C72.562 51.504 71.2962 50.1971 71.2962 50.1971V45.8675C71.2962 45.8675 72.4455 46.9505 72.626 47.1309C72.9572 47.4622 74.1476 48.5658 74.1476 50.4621V56.1078C74.1476 58.1412 73.549 60.3163 71.9314 61.9362C70.3115 63.5538 67.8577 64.703 65.1754 64.703H62.5365L58.5953 61.2599H65.2233C67.7686 61.2599 69.6169 59.5143 70.2658 58.8815C73.9671 55.2715 73.9808 53.0119 72.811 51.769ZM57.9121 51.392C57.9121 52.1483 55.4971 54.1543 55.3555 54.2959C55.1818 53.4826 54.5718 52.5824 52.7714 50.782L55.4149 48.1385C57.1856 49.9115 57.9121 50.2885 57.9121 51.392ZM52.511 51.4034C52.511 52.1574 50.096 54.1657 49.9543 54.3074C49.7807 53.4917 49.1706 52.5938 47.3703 50.7911L50.0114 48.1477C51.7844 49.9206 52.511 50.2976 52.511 51.4034ZM43.8609 43.3702C43.8609 43.3702 44.8707 43.3702 44.8684 47.0556V50.6403C44.8684 54.9997 48.7959 57.5906 51.7021 57.5197C52.1819 57.506 59.2464 57.5038 59.5937 57.5038C61.3233 57.5038 62.8084 54.9471 60.9417 53.4734C60.5442 53.1604 59.6371 52.1963 59.6371 52.1963V47.773C59.6371 47.773 60.5579 48.6503 60.8914 48.9839C61.4147 49.5071 62.4953 50.2839 62.4953 52.1506V54.3097C62.4953 56.519 61.6957 57.2022 60.944 58.043C60.7155 58.2943 60.0941 58.9934 59.6165 59.4184C58.312 60.5745 57.5557 61.0977 55.3966 61.0977H51.805C47.5028 61.0977 43.9614 57.1291 43.9614 52.836V46.2376C43.9614 44.1699 42.5037 43.3702 42.5037 43.3702H43.8609ZM55.4537 65.4639C55.4537 66.4189 54.6632 67.1934 53.6876 67.1934C52.712 67.1934 51.9192 66.4189 51.9215 65.4639C51.9215 64.5088 52.712 63.7343 53.6876 63.7343C54.6632 63.7343 55.4537 64.5088 55.4537 65.4639ZM28.1806 80.4679C28.1806 81.2561 27.47 82.7138 25.4343 82.7138H21.0042H19.5602H16.4461C16.4461 82.7138 15.3357 82.6361 15.3357 79.8624L15.2923 68.811C15.3357 66.0533 13.7523 64.6985 13.7523 64.6985H22.8685C27.5363 64.6985 27.9087 67.8971 27.9087 67.8971C25.9666 66.6039 24.0977 66.6405 21.6804 66.6382C21.5022 66.6382 18.8885 66.6291 18.8885 66.6291C19.302 67.1294 19.302 68.8224 19.302 68.8224V69.5741V70.7668H21.2692C24.3033 70.7668 25.3246 73.2275 25.3246 73.2275C23.9058 72.4232 22.4481 72.5969 21.276 72.5969C20.2296 72.5969 19.3043 72.6197 19.3043 72.6197V78.6858C19.4208 79.6316 19.318 80.7375 20.6523 80.7375C21.1275 80.7375 24.4496 80.742 24.8791 80.742C27.5637 80.742 28.2103 79.41 28.2103 79.4077L28.1806 80.4679ZM46.4586 82.6795C46.4586 82.6795 45.346 82.7069 45.33 79.8121C45.3277 79.2135 45.3345 72.7545 45.3345 72.7545C45.3574 71.6693 44.4001 70.7051 43.2577 70.7051C41.8229 70.7051 41.3225 71.7401 41.1808 72.165L41.1923 79.7801C41.1923 81.6651 42.6454 82.6886 42.6454 82.6886H38.8458C38.8458 82.6886 37.7172 82.6818 37.7172 79.8053L37.7194 72.7317C37.7423 71.6464 36.7256 70.6822 35.8002 70.6822C34.1666 70.6822 33.5955 71.8338 33.5475 72.1719V79.7824C33.5475 81.6194 34.9023 82.6407 35.0006 82.6909H31.2147C31.2147 82.6909 30.0724 82.6407 30.0724 79.8076L30.0746 71.2237C30.0746 68.9024 28.7449 68.3563 28.7449 68.3563L31.0411 68.3518C33.3853 68.3518 33.4538 71.0364 33.4538 71.0364C33.4538 71.0364 34.1941 68.2581 37.114 68.2581C38.6585 68.2581 40.5434 69.1103 41.0826 70.993C41.391 70.2984 42.113 68.2787 44.5303 68.2787C46.3558 68.2787 48.8051 69.076 48.8051 72.0759V79.8076C48.8051 81.6879 50.2582 82.6886 50.2582 82.6886C50.2582 82.6886 48.4372 82.6795 46.4586 82.6795ZM53.1187 82.6818C53.1187 82.6818 51.958 82.7001 51.958 79.8258V79.8121L51.9626 71.2054C51.9626 68.9344 50.6466 68.3518 50.6466 68.3518H52.9428C53.7516 68.3518 55.4377 68.3518 55.4377 71.5619L55.4332 79.7893L55.4469 79.8053C55.4469 81.7108 56.9045 82.6909 56.9045 82.6909C56.9045 82.6909 55.0973 82.6818 53.1187 82.6818ZM63.7017 82.6864H59.9159C59.9159 82.6864 58.7735 82.6384 58.7735 79.803L58.778 71.2077C58.778 68.8887 57.446 68.3426 57.446 68.3426L59.7422 68.3358C61.4215 68.3358 62.0201 68.9961 62.212 71.2283C62.212 71.2283 62.7924 68.4043 65.1708 68.4043C66.7427 68.4043 67.1083 69.4348 67.1083 69.4348H67.1106V71.868C66.135 70.6754 64.4305 70.4835 63.1831 71.2923C62.6827 71.6144 62.3537 72.1056 62.2532 72.7431L62.2486 79.7824C62.2486 81.6171 63.6035 82.6407 63.7017 82.6864ZM74.4126 82.6795C74.4126 82.6795 73.6061 82.5881 73.3502 80.9933C72.9207 81.8227 71.8926 82.7161 70.1813 82.7161C68.422 82.7161 67.0192 82.1037 66.6056 80.0018C65.5546 74.7034 72.4066 74.3767 73.2863 72.8345C73.7683 71.9937 73.5741 71.3471 73.5718 71.3425C73.5833 70.8627 73.4416 69.9031 71.5133 69.9031C69.5392 69.9031 68.7601 71.884 68.7601 71.884V69.3845C68.7601 69.3845 70.1333 68.3335 72.3152 68.3335C74.5863 68.3335 76.7225 69.8346 76.7225 71.7607V79.8167C76.7225 81.7085 78.1985 82.6864 78.1985 82.6864C78.1985 82.6864 76.3912 82.6795 74.4126 82.6795ZM87.0131 70.5132C87.0131 70.5132 86.0558 69.9534 84.774 69.9534C84.1503 69.9534 84.838 69.9511 83.8395 69.9488L83.835 79.8921C83.835 81.7131 85.2972 82.6909 85.2972 82.6909C85.2972 82.6909 83.5928 82.6818 81.5159 82.6818C81.5159 82.6818 80.3599 82.6818 80.3599 79.9172L80.3644 69.942L77.9609 69.8986C77.9609 69.8986 80.2182 68.8065 81.2943 67.9245C83.0056 66.5194 83.8418 65.0709 83.8418 65.0709L83.8395 68.3518H87.0245L87.0131 70.5132ZM93.0608 80.7694C93.6366 81.0368 95.9762 81.8798 97.491 79.2661L97.4795 81.5805C97.4795 81.5805 96.5085 82.7092 93.4218 82.7092C89.7022 82.7092 87.1547 79.7847 87.1547 75.8184C87.1547 71.9183 89.2316 68.2992 93.1522 68.2787C96.9952 68.2581 99.0743 71.3631 96.2846 74.283C94.1598 76.5061 92.4942 76.1565 91.1599 77.7856C91.1599 77.7878 91.3747 79.9926 93.0608 80.7694ZM102.696 82.6955C100.514 82.6955 99.0903 81.6811 99.0903 81.6811V79.1199C99.0903 79.1199 99.8785 81.1396 101.853 81.1396C103.779 81.1396 104.686 79.8098 104.665 78.7977C104.651 78.0734 104.249 77.3263 103.15 76.7163C102.394 76.2959 101.743 75.9006 101.195 75.4939C99.8123 74.4612 99.0971 73.3645 99.0629 71.6738C99.0218 69.7455 101.085 68.2467 103.356 68.2467C105.538 68.2467 106.977 69.3891 106.977 69.3891L106.984 71.7881C106.984 71.7881 106.182 69.8072 104.302 69.8072C102.371 69.8072 102.14 70.7759 102.161 71.2557C102.17 71.5276 102.545 72.3021 103.249 72.7362C104.485 73.4971 106.079 74.3173 106.957 75.4917C107.482 76.1999 107.827 77.0224 107.845 77.9866C107.905 80.726 105.287 82.6955 102.696 82.6955Z" fill="#14142B"/>
</g>
</g>
<defs>
<clipPath id="clip0_4739_15130">
<rect width="120" height="100" fill="white" transform="translate(0.800049)"/>
</clipPath>
<clipPath id="clip1_4739_15130">
<rect width="120" height="90.6706" fill="white" transform="translate(0.800049 5)"/>
</clipPath>
</defs>
</svg>
